
        <svg xmlns="http://www.w3.org/2000/svg" xmlns:xlink="http://www.w3.org/1999/xlink" version="1.1" width="3285.714285714286" height="3050.0928114817334" viewBox="0 0 3285.714285714286 3050.0928114817334">
			
			<g transform="scale(14.285714285714283) translate(10, 10)">
				<defs id="SvgjsDefs1036"><linearGradient id="SvgjsLinearGradient1043"><stop id="SvgjsStop1044" stop-color="#2d388a" offset="0"/><stop id="SvgjsStop1045" stop-color="#00aeef" offset="1"/></linearGradient></defs><g id="SvgjsG1037" featureKey="symbolFeature-0" transform="matrix(0.38266666666666665,0,0,0.38266666666666665,6.787333333333333,-49.855728068033855)" fill="#fff"><g xmlns="http://www.w3.org/2000/svg"><polygon points="121.6,256.1 170.1,207.7 143.5,181.1 68.5,256.1 122.5,310.1 148.9,283.4  "/><polygon points="389.5,202.1 363.1,228.7 390.4,256.1 342.1,304.6 368.5,331.1 443.5,256.1  "/><rect x="96.9" y="237.3" transform="matrix(0.7071 -0.7071 0.7071 0.7071 -106.0356 256.0074)" width="318.2" height="37.5"/></g></g><g id="SvgjsG1038" featureKey="nameFeature-0" transform="matrix(1.1405605342664744,0,0,1.1405605342664744,-1.8248968820194413,107.33174059220877)" fill="#fff"><path d="M1.6 23.16 c0 -11.16 0 -15.56 6 -15.56 c4.56 0 5.64 2.52 5.92 8.56 l-3.72 0 c-0.16 -4.36 -0.6 -5.36 -2.2 -5.36 c-2.24 0 -2.24 1.96 -2.24 12.36 c0 11.56 0 13.24 2.24 13.24 c2.12 0 2.24 -1.52 2.24 -10 l-2.64 0 l0 -3.2 l6.4 0 l0 1.56 c0 11.2 0 15.64 -6 15.64 s-6 -4.44 -6 -17.24 z M24 11.600000000000001 l0 -3.6 l12 0 l0 3.6 l-4 0 l0 28.4 l-4 0 l0 -28.4 l-4 0 z M38.400000000000006 40 l0 -32 l9.2 0 l0 3.2 l-5.2 0 l0 10.4 l4.4 0 l0 3.2 l-4.4 0 l0 11.2 l5.2 0 l0 4 l-9.2 0 z M50.00000000000001 23.16 c0 -11.16 0 -15.56 5.6 -15.56 c4.12 0 5.24 2.52 5.52 8.56 l-3.72 0 c-0.16 -4.36 -0.6 -5.36 -1.8 -5.36 c-1.84 0 -1.84 1.96 -1.84 12.36 c0 11.56 0 13.24 1.84 13.24 c1.32 0 1.72 -1 1.8 -6.16 l3.76 0 c-0.24 7.4 -1.24 10.16 -5.56 10.16 c-5.6 0 -5.6 -4.44 -5.6 -17.24 z M63.96000000000001 40 l0 -32 l4 0 l0 13.6 l4 0 l0 -13.6 l4 0 l0 32 l-4 0 l0 -15.2 l-4 0 l0 15.2 l-4 0 z M79.96000000000001 40 l0 -32 l3.6 0 l5.24 19.6 l-0.04 -0.4 l0 -19.2 l4 0 l0 32 l-3.6 0 l-5.24 -17.6 l0.04 0.4 l0 17.2 l-4 0 z M96.36 23.16 c0 -11.16 0.24 -15.56 6.24 -15.56 s6.24 4.4 6.24 15.56 c0 12.8 -0.24 17.24 -6.24 17.24 s-6.24 -4.44 -6.24 -17.24 z M100.36 23.16 c0 11.56 0 13.24 2.24 13.24 s2.24 -1.68 2.24 -13.24 c0 -10.4 0 -12.36 -2.24 -12.36 s-2.24 1.96 -2.24 12.36 z M112.44 40 l0 -32 l4 0 l0 28 l5.2 0 l0 4 l-9.2 0 z M123.63999999999999 23.16 c0 -11.16 0.24 -15.56 6.24 -15.56 s6.24 4.4 6.24 15.56 c0 12.8 -0.24 17.24 -6.24 17.24 s-6.24 -4.44 -6.24 -17.24 z M127.63999999999999 23.16 c0 11.56 0 13.24 2.24 13.24 s2.24 -1.68 2.24 -13.24 c0 -10.4 0 -12.36 -2.24 -12.36 s-2.24 1.96 -2.24 12.36 z M139.32 23.16 c0 -11.16 0 -15.56 6 -15.56 c4.56 0 5.64 2.52 5.92 8.56 l-3.72 0 c-0.16 -4.36 -0.6 -5.36 -2.2 -5.36 c-2.24 0 -2.24 1.96 -2.24 12.36 c0 11.56 0 13.24 2.24 13.24 c2.12 0 2.24 -1.52 2.24 -10 l-2.64 0 l0 -3.2 l6.4 0 l0 1.56 c0 11.2 0 15.64 -6 15.64 s-6 -4.44 -6 -17.24 z M154.52 40 l0 -32 l4 0 l0 32 l-4 0 z M162.52 40 l0 -32 l9.2 0 l0 3.2 l-5.2 0 l0 10.4 l4.4 0 l0 3.2 l-4.4 0 l0 11.2 l5.2 0 l0 4 l-9.2 0 z M173.72 30.240000000000002 l4.04 0 c0.08 5.16 0.48 6.16 1.92 6.16 c1.96 0 1.96 -1.64 1.96 -6 c0 -6.4 -7.92 -4.68 -7.92 -13.2 c0 -5 0 -9.6 6 -9.6 c4.44 0 5.64 2.52 5.92 8.56 l-4 0 c-0.16 -4.36 -0.64 -5.36 -1.92 -5.36 c-1.96 0 -1.96 2.16 -1.96 6.4 c0 6.2 7.96 4 7.96 13.2 c0 5.6 0 10 -6.04 10 c-4.64 0 -5.72 -2.76 -5.96 -10.16 z"/></g><g id="SvgjsG1039" featureKey="sloganFeature-0" transform="matrix(1.3540107170715558,0,0,1.3540107170715558,-0.3633029671053032,166.39243012830707)" fill="#fff"><path d="M1.82 4.98 c-0.02 0 -0.18 -0.02 -0.34 -0.02 c-0.28 0 -0.42 0.1 -0.46 0.36 c-0.02 0.14 -0.02 0.3 0.02 0.42 c0.16 0.62 3.26 13.44 3.42 14 c0.06 0.24 0.08 0.24 0.32 0.24 l1.62 0 l0.12 0 c0.26 0 0.28 -0.36 0.34 -0.7 c0.4 -2.06 0.9 -4.1 1.38 -6.08 c0.02 -0.12 0.06 -0.24 0.1 -0.34 c0.02 -0.04 0.06 -0.06 0.08 -0.06 c0.04 0 0.08 0.02 0.1 0.06 c0.1 0.24 1.3 5.92 1.54 6.9 c0.04 0.12 0.1 0.22 0.26 0.22 l1.6 0 c0.3 0 0.5 -0.16 0.56 -0.46 c0.26 -1.32 0.6 -2.8 0.92 -4.1 c0.4 -1.6 0.82 -3.18 1.24 -4.78 c0.32 -1.28 0.66 -2.68 1.06 -3.94 c0.14 -0.42 0.66 -1.68 -0.22 -1.68 c-0.44 0 -0.82 -0.04 -1.26 -0.02 c-0.14 0 -0.28 0 -0.42 0.02 c-0.22 0 -0.38 0.12 -0.46 0.32 c-0.06 0.2 -0.16 0.42 -0.22 0.62 c-0.3 1.28 -0.58 2.74 -0.94 4 c-0.26 0.94 -0.54 1.86 -0.76 2.8 c0 0.02 -0.08 0.32 -0.16 0.32 c-0.14 0 -0.18 -0.22 -0.22 -0.42 c-0.02 -0.08 -1.02 -5.82 -1.16 -6.94 c-0.04 -0.44 -0.18 -0.7 -0.64 -0.72 l-0.24 0 c-0.52 0.04 -0.8 -0.02 -1.32 0.02 c-0.42 0.02 -0.48 0.06 -0.58 0.44 c-0.02 0.08 -0.02 0.18 -0.04 0.28 c-0.16 0.88 -1.2 6.56 -1.34 7.24 c0 0.04 -0.02 0.12 -0.08 0.12 c-0.08 0 -0.1 -0.1 -0.12 -0.14 c-0.02 -0.08 -1.76 -7.42 -1.82 -7.6 c-0.08 -0.24 -0.26 -0.38 -0.54 -0.38 c-0.44 0.02 -0.78 0 -1.34 0 z M32.098 15.9 l-0.02 0 c0 0.5 -0.02 1.02 0 1.54 c0.02 0.64 0.06 1.28 0.1 1.92 c0 0.22 0.06 0.28 0.26 0.32 c0.42 0.1 0.82 0.12 1.24 0.12 c1.08 -0.04 2.16 0.04 3.24 0 c0.44 -0.02 0.64 0.02 1.08 -0.06 c0.4 -0.08 0.54 -0.3 0.54 -0.9 c-0.04 -0.38 -0.02 -0.54 -0.02 -1 c0 -0.66 -0.46 -0.88 -0.86 -0.86 c-0.28 0.02 -1.62 -0.02 -2.16 -0.02 c-0.9 0.02 -0.76 0.14 -0.76 -0.8 c0 -0.76 0.02 -1.74 0.02 -2.52 c0 -0.42 0.04 -0.56 0.44 -0.56 l2.5 0 c0.4 0.06 0.68 -0.22 0.68 -0.64 s0.04 -0.44 0.04 -0.86 l-0.06 -0.6 c-0.04 -0.34 -0.16 -0.46 -0.5 -0.46 c-0.22 0 -0.44 0.02 -0.66 0.04 c-0.86 0.06 -1.26 -0.06 -2.1 0 c-0.28 0 -0.32 -0.04 -0.34 -0.3 c-0.08 -0.78 0 -1.64 0.08 -2.42 c0.02 -0.32 0.1 -0.38 0.4 -0.4 l2.82 -0.02 c0.38 -0.04 0.5 -0.02 0.48 -0.4 c-0.04 -0.58 0.02 -1.18 -0.04 -1.76 c-0.04 -0.32 -0.14 -0.38 -0.5 -0.38 c-0.6 0.02 -0.74 0.02 -1.34 0.06 c-0.6 0.02 -3 0.02 -3.58 0.02 c-0.84 0 -0.9 -0.06 -0.92 0.96 c-0.04 0.8 -0.02 1.62 -0.02 2.44 c0 1.4 -0.08 6.42 -0.04 7.54 z M54.656 6.539999999999999 c0 0.96 -0.04 11.28 0 12.2 c0.02 0.22 0.02 0.44 0.02 0.66 c0 0.16 0.1 0.26 0.24 0.32 c0.12 0.04 0.28 0.08 0.4 0.08 c0.58 -0.06 1.2 0 1.8 -0.02 c1.04 0.08 1.98 -0.16 2.88 -0.64 c0.84 -0.48 1.3 -1.34 1.62 -2.24 c0.26 -0.76 0.22 -1.66 0.08 -2.44 c-0.12 -0.7 -0.44 -1.38 -0.86 -1.94 c-0.06 -0.08 -0.92 -0.62 -0.88 -0.66 c0.52 -0.74 1.26 -1.36 1.36 -2.28 c0.08 -0.8 -0.1 -1.62 -0.38 -2.36 c-0.18 -0.48 -0.42 -0.94 -0.8 -1.3 c-0.64 -0.6 -1.6 -0.86 -2.44 -0.94 c-0.86 -0.08 -1.66 -0.02 -2.52 -0.06 c-0.3 0 -0.44 0.12 -0.44 0.44 c0 0.42 -0.08 0.76 -0.08 1.18 z M57.11599999999999 10.18 c-0.02 -0.22 0 -1.98 -0.04 -2.64 c-0.02 -0.24 0.12 -0.36 0.38 -0.3 c0.2 0.04 0.36 0.06 0.52 0.18 c0.5 0.38 0.88 0.84 0.9 1.48 c0 0.32 0 0.64 -0.12 0.94 c-0.14 0.36 -0.34 0.64 -0.7 0.82 c-0.24 0.12 -0.46 0.26 -0.7 0.36 c-0.12 0.04 -0.24 -0.02 -0.26 -0.14 c0 -0.24 0.02 -0.7 0.02 -0.7 z M59.116 15.48 c0 0.1 -0.02 0.28 -0.02 0.46 c-0.02 0.6 -0.8 1.36 -1.7 1.38 c-0.06 0 -0.16 -0.06 -0.18 -0.12 c-0.04 -0.12 -0.08 -0.26 -0.08 -0.4 c-0.02 -0.62 0 -1.22 0 -1.88 c0.06 -0.42 0.02 -0.86 0.02 -1.3 c0.02 -0.34 0.1 -0.4 0.42 -0.46 c0.48 -0.06 0.92 0.14 1.14 0.52 c0.26 0.46 0.36 0.96 0.4 1.48 l0 0.32 z M105.43199999999999 16.32 c0.12 -0.26 0.22 -0.52 0.32 -0.78 c0.22 -0.64 0.26 -1.3 0.32 -1.96 c0.12 -1.4 0.08 -2.82 -0.28 -4.18 c-0.44 -1.74 -1.56 -3.34 -3.24 -4.08 c-0.76 -0.34 -1.62 -0.38 -2.44 -0.36 c-0.86 0 -1.74 -0.04 -2.6 0.04 c-0.24 0.02 -0.36 0.14 -0.4 0.36 c-0.04 0.24 -0.08 0.48 -0.08 0.7 c0.04 1.22 0 4.84 0.04 5.44 c0.02 0.54 -0.04 1.2 -0.04 1.74 c0.02 1.34 0 2.7 0 4.04 c0 0.56 -0.02 1.1 -0.02 1.66 c0 0.6 -0.22 0.86 1.42 0.86 c1.46 0 2.98 -0.12 4.36 -0.64 c1.28 -0.46 2.08 -1.64 2.64 -2.84 z M99.61199999999998 14.24 l0 -2.4 c0 -1.52 0.04 -2.5 -0.02 -3.78 l0 -0.24 c0.02 -0.42 0.08 -0.44 0.52 -0.44 c0.58 -0.02 1 0.12 1.5 0.32 s0.78 0.64 1.04 1.06 c0.5 0.82 0.7 1.72 0.74 2.66 c0.02 0.54 0.04 1.08 0.04 1.62 c0 2.56 -1.5 4.34 -2.82 4.34 c-0.88 0 -1.02 0.06 -1.02 -0.52 c0 -0.6 0.04 -1.2 0.04 -1.8 c-0.02 -0.26 -0.02 -0.54 -0.02 -0.82 z M122.24999999999999 15.9 l-0.02 0 c0 0.5 -0.02 1.02 0 1.54 c0.02 0.64 0.06 1.28 0.1 1.92 c0 0.22 0.06 0.28 0.26 0.32 c0.42 0.1 0.82 0.12 1.24 0.12 c1.08 -0.04 2.16 0.04 3.24 0 c0.44 -0.02 0.64 0.02 1.08 -0.06 c0.4 -0.08 0.54 -0.3 0.54 -0.9 c-0.04 -0.38 -0.02 -0.54 -0.02 -1 c0 -0.66 -0.46 -0.88 -0.86 -0.86 c-0.28 0.02 -1.62 -0.02 -2.16 -0.02 c-0.9 0.02 -0.76 0.14 -0.76 -0.8 c0 -0.76 0.02 -1.74 0.02 -2.52 c0 -0.42 0.04 -0.56 0.44 -0.56 l2.5 0 c0.4 0.06 0.68 -0.22 0.68 -0.64 s0.04 -0.44 0.04 -0.86 l-0.06 -0.6 c-0.04 -0.34 -0.16 -0.46 -0.5 -0.46 c-0.22 0 -0.44 0.02 -0.66 0.04 c-0.86 0.06 -1.26 -0.06 -2.1 0 c-0.28 0 -0.32 -0.04 -0.34 -0.3 c-0.08 -0.78 0 -1.64 0.08 -2.42 c0.02 -0.32 0.1 -0.38 0.4 -0.4 l2.82 -0.02 c0.38 -0.04 0.5 -0.02 0.48 -0.4 c-0.04 -0.58 0.02 -1.18 -0.04 -1.76 c-0.04 -0.32 -0.14 -0.38 -0.5 -0.38 c-0.6 0.02 -0.74 0.02 -1.34 0.06 c-0.6 0.02 -3 0.02 -3.58 0.02 c-0.84 0 -0.9 -0.06 -0.92 0.96 c-0.04 0.8 -0.02 1.62 -0.02 2.44 c0 1.4 -0.08 6.42 -0.04 7.54 z M149.16799999999998 20.02 c0.3 0 1.4 0.02 1.62 -0.02 c0.14 -0.04 0.22 -0.4 0.26 -0.52 c0.12 -0.38 0.2 -0.78 0.3 -1.16 c0.22 -1 2.44 -9.4 3.22 -12.54 c0.04 -0.14 0.08 -0.3 0.04 -0.44 c-0.06 -0.3 -0.24 -0.34 -0.48 -0.34 c-0.46 0.02 -0.92 0 -1.38 0 c-0.52 0 -0.72 0.06 -0.88 0.64 c-0.78 2.68 -1.3 5.88 -2.02 8.6 l-0.12 0.32 c0 0.02 -0.08 0 -0.08 0 c-0.04 -0.1 -0.1 -0.18 -0.12 -0.28 c-0.72 -2.86 -1.9 -8.52 -2.1 -9.06 c-0.12 -0.32 -0.42 -0.22 -0.7 -0.22 c-0.56 0 -1.08 0.02 -1.62 0.02 c-0.2 0.02 -0.34 0.1 -0.32 0.3 c0 0.16 0.22 1.04 0.26 1.28 l0.22 0.84 c0.14 0.64 0.34 1.44 0.48 2.06 c0.76 3.18 1.58 6.36 2.48 9.5 c0.08 0.28 0.14 0.76 0.34 0.92 c0.16 0.14 0.42 0.08 0.6 0.1 z"/></g>
			</g>
		</svg>
	